# xmcd
#
# Track frame offsets:
#	150
#	17920
#	37419
#	62023
#	82617
#	107117
#	128644
#	145892
#	159627
#	174631
#
# Disc length: 2557 seconds
#
# Revision: 0
# Processed by: cddbd v1.5.1PL0 Copyright (c) Steve Scherf et al.
# Submitted via: dBpowerAMP V4.0
#
DISCID=8309fb0a
DTITLE=Michael Ruberu - LIT
DYEAR=2005
DGENRE=Acoustic
TTITLE0=Katie
TTITLE1=Iliad
TTITLE2=LIT
TTITLE3=King's Horses
TTITLE4=Line
TTITLE5=Beautiful
TTITLE6=Dreamed
TTITLE7=Shove
TTITLE8=Blood and Water
TTITLE9=Laugh
EXTD=Michael Ruberu's debut CD\nAcoustic and Blues written, arranged and produced by Michael Ruberu
EXTT0=
EXTT1=
EXTT2=
EXTT3=
EXTT4=
EXTT5=
EXTT6=
EXTT7=
EXTT8=
EXTT9=
PLAYORDER=
